<svg width="300" height="300" viewBox="0 0 300 300" fill="none" xmlns="http://www.w3.org/2000/svg">
<ellipse cx="149.104" cy="245.25" rx="122.131" ry="24.75" fill="#E5E7EB"/>
<path d="M237.678 61.9312C226.893 51.1491 212.692 45 198.694 45C186.886 45 176.016 49.3837 168.076 57.3178L136.167 89.5003C136.069 89.5922 135.957 89.6512 135.859 89.7497C135.806 89.8022 135.774 89.8744 135.721 89.9203L135.734 89.9334L68.0145 158.243C64.8937 161.347 62.6318 165.212 61.373 169.432L45.9723 225.265C45.9592 225.416 44.9561 229.8 44.9561 232.031C44.9561 244.71 55.2429 255 67.9293 255C70.4534 255 75.3379 253.793 75.5149 253.766L131.099 239.138C135.321 237.885 139.157 235.601 142.277 232.471L242.346 131.52C260.546 113.289 258.494 82.7344 237.678 61.9312ZM149.948 201.155C149.411 195.235 147.739 189.428 145.234 183.915L207.224 121.873C211.013 133.856 208.994 146.614 200.687 154.935C200.733 154.882 200.635 154.987 200.687 154.935C180.901 174.899 150.02 206.057 150.02 206.057C150.02 204.423 150.099 202.822 149.948 201.155ZM141.943 177.93C139.498 173.907 136.718 170.022 133.276 166.583C129.27 162.574 124.674 159.43 119.875 156.792L182.369 94.2384C187.273 96.4172 191.974 99.5212 196.124 103.675C199.671 107.212 202.412 111.176 204.523 115.298L141.943 177.93ZM113.705 153.688C107.634 151.24 101.274 149.842 94.9018 149.757L145.405 98.8191C153.135 91.2722 164.392 89.1 175.478 91.8497L113.705 153.688ZM72.2761 241.042C71.5614 241.206 69.3389 241.77 67.8309 241.875C62.4417 241.809 58.0686 237.426 58.0686 232.031C58.1473 230.929 58.5866 229.032 58.7374 228.343L65.6411 203.314C73.135 203.11 81.1992 206.031 87.5391 212.39C93.9773 218.821 97.0063 227.05 96.6785 234.643L72.2761 241.042ZM103.136 232.93C102.979 224.123 99.3994 214.962 92.1744 207.743C85.3427 200.899 76.4 196.948 67.4834 196.594L74.0135 172.923C74.4855 171.348 75.4231 169.793 76.577 168.434C89.7289 159.01 109.955 161.793 124.005 175.869C138.868 190.74 141.163 212.528 129.716 225.534C128.955 225.935 128.188 226.315 127.362 226.558L103.136 232.93ZM233.062 122.254L222.021 133.39C222.021 131.907 222.198 130.483 222.061 128.967C220.907 116.269 214.993 103.99 205.388 94.3894C194.708 83.6925 180.546 77.5566 166.522 77.5172L177.38 66.5578C182.815 61.1306 190.4 58.125 198.694 58.125C209.243 58.125 220.081 62.9025 228.414 71.2172C236.235 79.0331 240.897 88.7456 241.566 98.5697C242.182 107.738 239.159 116.144 233.062 122.254Z" fill="#374151"/>
<path d="M222.021 133.39L233.062 122.254C239.159 116.144 242.182 107.738 241.566 98.5697C240.897 88.7456 236.235 79.0331 228.414 71.2172C220.081 62.9025 209.243 58.125 198.694 58.125C190.4 58.125 182.815 61.1306 177.38 66.5578L166.522 77.5172C180.546 77.5566 194.708 83.6925 205.388 94.3894C214.993 103.99 220.907 116.269 222.061 128.967C222.198 130.483 222.021 131.907 222.021 133.39Z" fill="#F472B6"/>
<path d="M145.234 183.915C147.739 189.428 149.411 195.235 149.948 201.155C150.099 202.822 150.02 204.423 150.02 206.057L200.687 154.935C208.994 146.614 211.013 133.856 207.224 121.873L145.234 183.915Z" fill="#FAB131"/>
<path d="M133.276 166.583C136.718 170.022 139.498 173.907 141.943 177.93L204.523 115.298C202.411 111.176 199.671 107.212 196.124 103.675C191.974 99.5212 187.273 96.4172 182.369 94.2384L119.875 156.792C124.674 159.43 129.27 162.574 133.276 166.583Z" fill="#FEC94D"/>
<path d="M94.9018 149.757C101.274 149.842 107.634 151.24 113.705 153.688L175.478 91.8497C164.392 89.1 153.135 91.2722 145.405 98.8191L94.9018 149.757Z" fill="#FAB131"/>
<path d="M92.1744 207.743C99.3994 214.962 102.979 224.123 103.136 232.93L127.362 226.558C128.188 226.315 128.955 225.935 129.716 225.534C141.163 212.528 138.868 190.74 124.005 175.869C109.955 161.793 89.7289 159.01 76.577 168.434C75.4231 169.793 74.4855 171.348 74.0135 172.923L67.4834 196.594C76.4 196.948 85.3427 200.899 92.1744 207.743Z" fill="#FDD9B6"/>
<path d="M67.8309 241.875C69.3389 241.77 71.5615 241.206 72.2761 241.042L96.6785 234.643C97.0063 227.05 93.9773 218.821 87.5391 212.39C81.1992 206.031 73.135 203.11 65.6411 203.314L58.7374 228.343C58.5866 229.032 58.1473 230.929 58.0686 232.031C58.0686 237.426 62.4417 241.809 67.8309 241.875Z" fill="#374151"/>
</svg>
